# File created by Blade
# Date/Time:  Fri Jan 16 17:25:32 2015
#---------------------------------------------------------
:version 1.10
:name HOM
:units
  mass 1.0
  length 1.000000
  angle deg
:documentation
     Acclaim Skeleton File
:root
   axis xyz
   order TX TY TZ RX RY RZ
   position 0.000000 0.000000 0.000000
   orientation 0 0 0
:bonedata
   begin
      id 1
      name Spine_dum
      direction 0.000000 1.000000 0.000000
      length 7.170412
      axis 0.0 0.0 0.0 xyz
   end
   begin
      id 2
      name LeftUpLeg_dum
      direction 1.000000 0.000000 0.000000
      length 4.318350
      axis 0.0 0.0 0.0 xyz
   end
   begin
      id 3
      name RightUpLeg_dum
      direction -1.000000 0.000000 0.000000
      length 4.318350
      axis 0.0 0.0 0.0 xyz
   end
   begin
      id 4
      name Spine
      direction 0.000000 1.000000 0.000000
      length 0.000000
      axis 0.0 0.0 0.0 xyz
      dof rx ry rz
   end
   begin
      id 5
      name Spine_dum1
      direction 0.000000 1.000000 0.000000
      length 14.276153
      axis 0.0 0.0 0.0 xyz
   end
   begin
      id 6
      name Spine_dum2
      direction 0.000000 1.000000 0.000000
      length 10.718243
      axis 0.0 0.0 0.0 xyz
   end
   begin
      id 7
      name Spine_dum3
      direction 0.000000 1.000000 0.000000
      length 10.718243
      axis 0.0 0.0 0.0 xyz
   end
   begin
      id 8
      name Head
      direction 0.000000 1.000000 0.000000
      length 4.527550
      axis 0.0 0.0 0.0 xyz
      dof rx ry rz
   end
   begin
      id 9
      name LeftShoulder
      direction 1.000000 0.000000 0.000000
      length 7.058872
      axis 0.0 0.0 -90.0 xyz
      dof rx ry rz
   end
   begin
      id 10
      name LeftArm
      direction 1.000000 0.000000 0.000000
      length 10.955525
      axis 0.0 0.0 -90.0 xyz
      dof rx ry rz
   end
   begin
      id 11
      name LeftForeArm
      direction 1.000000 0.000000 0.000000
      length 8.193716
      axis 0.0 0.0 -90.0 xyz
      dof ry rz rx
   end
   begin
      id 12
      name LeftHand
      direction 0.000000 0.000000 0.000000
      length 0.000000
      axis 0.0 0.0 -90.0 xyz
      dof rx ry rz
   end
   begin
      id 13
      name LeftHand_dum1
      direction 0.000000 0.000000 0.000000
      length 0.000000
      axis 0.0 0.0 -90.0 xyz
   end
   begin
      id 14
      name LeftHand_dum2
      direction 1.000000 0.000000 0.000000
      length 3.937000
      axis 0.0 0.0 -90.0 xyz
   end
   begin
      id 15
      name LeftHandThumb1
      direction 0.000000 0.000000 1.000000
      length 3.937000
      axis 0.0 0.0 -90.0 xyz
      dof rx rz ry
   end
   begin
      id 16
      name RightShoulder
      direction -1.000000 0.000000 0.000000
      length 7.058872
      axis 0.0 0.0 90.0 xyz
      dof rx ry rz
   end
   begin
      id 17
      name RightArm
      direction -1.000000 0.000000 0.000000
      length 10.955525
      axis 0.0 0.0 90.0 xyz
      dof rx ry rz
   end
   begin
      id 18
      name RightForeArm
      direction -1.000000 0.000000 0.000000
      length 8.193716
      axis 0.0 0.0 90.0 xyz
      dof ry rz rx
   end
   begin
      id 19
      name RightHand
      direction 0.000000 0.000000 0.000000
      length 0.000000
      axis 0.0 0.0 90.0 xyz
      dof rx ry rz
   end
   begin
      id 20
      name RightHand_dum1
      direction 0.000000 0.000000 0.000000
      length 0.000000
      axis 0.0 0.0 90.0 xyz
   end
   begin
      id 21
      name RightHand_dum2
      direction -1.000000 0.000000 0.000000
      length 3.937000
      axis 0.0 0.0 90.0 xyz
   end
   begin
      id 22
      name RightHandThumb1
      direction 0.000000 0.000000 1.000000
      length 3.937000
      axis 0.0 0.0 90.0 xyz
      dof rx rz ry
   end
   begin
      id 23
      name LeftUpLeg
      direction 0.000000 -1.000000 0.000000
      length 17.323638
      axis 0.0 0.0 0.0 xyz
      dof rx ry rz
   end
   begin
      id 24
      name LeftLeg
      direction 0.000000 -1.000000 0.000000
      length 16.270368
      axis 0.0 0.0 0.0 xyz
      dof rx ry rz
   end
   begin
      id 25
      name LeftFoot
      direction 0.000000 -0.258819 0.965926
      length 4.922846
      axis 15.0 0.0 0.0 xyz
      dof rx ry rz
   end
   begin
      id 26
      name LeftToeBase
      direction 0.000000 0.000000 1.000000
      length 2.952750
      axis 0.0 0.0 0.0 xyz
      dof rx ry rz
   end
   begin
      id 27
      name RightUpLeg
      direction 0.000000 -1.000000 0.000000
      length 17.323638
      axis 0.0 0.0 0.0 xyz
      dof rx ry rz
   end
   begin
      id 28
      name RightLeg
      direction 0.000000 -1.000000 0.000000
      length 16.270368
      axis 0.0 0.0 0.0 xyz
      dof rx ry rz
   end
   begin
      id 29
      name RightFoot
      direction 0.000000 -0.258819 0.965926
      length 4.922846
      axis 15.0 0.0 0.0 xyz
      dof rx ry rz
   end
   begin
      id 30
      name RightToeBase
      direction 0.000000 0.000000 1.000000
      length 2.952750
      axis 0.0 0.0 0.0 xyz
      dof rx ry rz
   end
:hierarchy
   begin
      root Spine_dum LeftUpLeg_dum RightUpLeg_dum
      Spine_dum Spine
      LeftUpLeg_dum LeftUpLeg
      RightUpLeg_dum RightUpLeg
      Spine Spine_dum1 Spine_dum2 Spine_dum3
      Spine_dum1 Head
      Spine_dum2 LeftShoulder
      Spine_dum3 RightShoulder
      LeftShoulder LeftArm
      LeftArm LeftForeArm
      LeftForeArm LeftHand
      LeftHand LeftHand_dum1 LeftHand_dum2
      LeftHand_dum1 LeftHandThumb1
      RightShoulder RightArm
      RightArm RightForeArm
      RightForeArm RightHand
      RightHand RightHand_dum1 RightHand_dum2
      RightHand_dum1 RightHandThumb1
      LeftUpLeg LeftLeg
      LeftLeg LeftFoot
      LeftFoot LeftToeBase
      RightUpLeg RightLeg
      RightLeg RightFoot
      RightFoot RightToeBase
   end

# File created by Blade
# Date/Time:  Fri Jan 16 17:25:22 2015
# Frame Rate: 120.000 fps
#------------------------------------------------------
:FULLY-SPECIFIED
:DEGREES
668
root -5.742121 35.254342 -10.728213 -3.474790 -9.025909 -6.047884
Spine 4.372785 3.348233 9.299990
Head 3.849762 4.253957 -7.308978
LeftShoulder -18.556252 15.639404 -16.734779
LeftArm 26.586171 20.044440 -65.029538
LeftForeArm 11.000211 -0.000000 15.282348
LeftHand 0.739471 -0.000000 -7.351806
LeftHandThumb1 -26.253704 0.000000 33.147579
RightShoulder -0.980751 -5.425023 1.339910
RightArm 7.110080 -37.124242 65.762892
RightForeArm -17.954316 -0.000000 21.801094
RightHand 1.355897 -0.000000 7.169228
RightHandThumb1 -24.326973 -0.000000 -32.862282
LeftUpLeg 13.132166 16.775793 8.387854
LeftLeg -8.859766 -0.000000 0.000000
LeftFoot -14.803495 29.163488 -7.699178
LeftToeBase 22.943590 -0.000000 -0.000000
RightUpLeg 8.627082 -5.185703 2.691753
RightLeg -4.213477 -0.000000 0.000000
RightFoot -3.390375 -22.239726 5.333910
RightToeBase 13.723031 -0.000000 -0.000000
669
root -5.740952 35.254542 -10.731961 -3.460843 -9.050910 -6.053758
Spine 4.404559 3.221045 9.301331
Head 3.821777 4.397683 -7.282577
LeftShoulder -18.580631 15.632813 -16.747272
LeftArm 26.567054 19.959822 -65.073008
LeftForeArm 11.280963 -0.000000 15.320872
LeftHand 0.676514 -0.000000 -7.080791
LeftHandThumb1 -26.253704 0.000000 33.147579
RightShoulder -1.088177 -5.429797 1.397445
RightArm 6.876662 -36.886093 65.992295
RightForeArm -18.029632 -0.000000 21.805134
RightHand 1.191258 0.000000 6.884034
RightHandThumb1 -24.326973 -0.000000 -32.862282
LeftUpLeg 13.114806 16.795003 8.390177
LeftLeg -8.853782 -0.000000 0.000000
LeftFoot -14.830201 29.167948 -7.718626
LeftToeBase 23.013792 -0.000000 -0.000000
RightUpLeg 8.599988 -5.160112 2.698592
RightLeg -4.199671 -0.000000 0.000000
RightFoot -3.391329 -22.226463 5.355772
RightToeBase 13.693952 -0.000000 -0.000000
670
root -5.740933 35.254517 -10.734686 -3.456304 -9.067604 -6.054010
Spine 4.439384 3.105034 9.287855
Head 3.807095 4.544169 -7.231750
LeftShoulder -18.572574 15.647870 -16.734393
LeftArm 26.571176 19.910304 -65.106852
LeftForeArm 11.304941 -0.000000 15.322219
LeftHand 0.785175 0.000000 -6.905391
LeftHandThumb1 -26.253704 0.000000 33.147579
RightShoulder -1.234090 -5.530662 1.469012
RightArm 6.833505 -36.615832 66.117986
RightForeArm -18.087475 0.000000 21.740581
RightHand 1.248091 -0.000000 6.957399
RightHandThumb1 -24.326973 -0.000000 -32.862282
LeftUpLeg 13.109476 16.828611 8.394097
LeftLeg -8.851389 -0.000000 0.000000
LeftFoot -14.823215 29.163648 -7.703315
LeftToeBase 23.006345 -0.000000 -0.000000
RightUpLeg 8.589146 -5.124605 2.705657
RightLeg -4.201002 -0.000000 0.000000
RightFoot -3.386687 -22.254649 5.371675
RightToeBase 13.689107 -0.000000 -0.000000
671
root -5.739955 35.254245 -10.737490 -3.444620 -9.094268 -6.054466
Spine 4.468111 2.976319 9.287187
Head 3.790531 4.704848 -7.203224
LeftShoulder -18.604868 15.652839 -16.740905
LeftArm 26.596326 19.910484 -65.115042
LeftForeArm 11.329406 -0.000000 15.303905
LeftHand 0.784887 0.000000 -6.882322
LeftHandThumb1 -26.253704 0.000000 33.147579
RightShoulder -1.297739 -5.561145 1.512065
RightArm 6.648314 -36.365333 66.341546
RightForeArm -18.262655 -0.000000 21.738227
RightHand 1.228839 -0.000000 7.052070
RightHandThumb1 -24.326973 -0.000000 -32.862282
LeftUpLeg 13.100941 16.881391 8.396564
LeftLeg -8.855155 -0.000000 0.000000
LeftFoot -14.802314 29.146409 -7.684037
LeftToeBase 22.967059 -0.000000 -0.000000
RightUpLeg 8.560201 -5.090326 2.707720
RightLeg -4.177443 -0.000000 0.000000
RightFoot -3.399167 -22.242581 5.366066
RightToeBase 13.719339 -0.000000 -0.000000
672
root -5.740120 35.254357 -10.740354 -3.433169 -9.117604 -6.064762
Spine 4.497710 2.834403 9.303590
Head 3.772635 4.904980 -7.184647
LeftShoulder -18.622011 15.669496 -16.754603
LeftArm 26.605848 19.892747 -65.132480
LeftForeArm 11.253082 -0.000000 15.316260
LeftHand 0.743721 -0.000000 -6.861063
LeftHandThumb1 -26.253704 0.000000 33.147579
RightShoulder -1.375397 -5.614189 1.544744
RightArm 6.545440 -36.134319 66.542035
RightForeArm -18.310400 -0.000000 21.699852
RightHand 1.184593 -0.000000 7.034660
RightHandThumb1 -24.326973 -0.000000 -32.862282
LeftUpLeg 13.095659 16.886920 8.402578
LeftLeg -8.863243 -0.000000 0.000000
LeftFoot -14.800648 29.156910 -7.676348
LeftToeBase 23.003112 -0.000000 -0.000000
RightUpLeg 8.535854 -5.101020 2.719569
RightLeg -4.165063 -0.000000 0.000000
RightFoot -3.386169 -22.224719 5.339444
RightToeBase 13.757066 -0.000000 -0.000000
